<svg width="43" height="50" viewBox="0 0 43 50" fill="none" xmlns="http://www.w3.org/2000/svg">
<path d="M41.6222 9.19243L22.5249 0.228111C21.8685 -0.0760369 21.1322 -0.0760369 20.4759 0.228111L1.37861 9.19243C0.54617 9.59263 0.00195312 10.441 0.00195312 11.3695C0.00195312 12.298 0.54617 13.1463 1.37861 13.5465L20.4759 22.5109C20.796 22.6549 21.1483 22.735 21.5004 22.735C21.8525 22.735 22.2047 22.6549 22.5249 22.5109L41.6222 13.5465C42.4546 13.1463 42.9988 12.2979 42.9988 11.3695C42.9988 10.441 42.4546 9.59263 41.6222 9.19243Z" fill="#FFE13B"/>
<path d="M42.7713 19.3129C42.2085 18.1123 40.7766 17.5996 39.5775 18.1608L21.5 26.6446L3.42247 18.1608C2.22189 17.598 0.78993 18.1108 0.228729 19.3129C-0.335609 20.5135 0.180274 21.9439 1.38086 22.5067L20.4792 31.4704C20.8028 31.622 21.1514 31.6986 21.5 31.6986C21.8486 31.6986 22.1972 31.622 22.5208 31.4704L41.6191 22.5067C42.8197 21.9439 43.3356 20.5135 42.7713 19.3129Z" fill="#FFE13B"/>
<path d="M42.7713 28.2767C42.2085 27.0761 40.7766 26.5633 39.5775 27.1245L21.5 35.6099L3.42247 27.1245C2.22189 26.5618 0.78993 27.0745 0.228729 28.2767C-0.335609 29.4773 0.180274 30.9076 1.38086 31.4704L20.4792 40.4357C20.8028 40.5874 21.1514 40.664 21.5 40.664C21.8486 40.664 22.1972 40.5874 22.5208 40.4357L41.6191 31.4704C42.8197 30.9076 43.3356 29.4773 42.7713 28.2767Z" fill="#FFE13B"/>
<path d="M42.7713 37.2421C42.2085 36.0415 40.7766 35.5256 39.5775 36.0899L21.5 44.5737L3.42247 36.09C2.22189 35.5256 0.78993 36.0415 0.228729 37.2421C-0.335609 38.4427 0.180274 39.873 1.38086 40.4358L20.4792 49.3995C20.8028 49.5512 21.1514 49.6278 21.5 49.6278C21.8486 49.6278 22.1972 49.5512 22.5208 49.3995L41.6191 40.4358C42.8197 39.873 43.3356 38.4426 42.7713 37.2421Z" fill="#FFE13B"/>
</svg>
