<svg width="42" height="48" viewBox="0 0 42 48" fill="none" xmlns="http://www.w3.org/2000/svg">
<path d="M34.5 18C31.4259 18 28.7916 19.8534 27.6328 22.5H21C15.9778 22.5 11.7778 18.9497 10.7531 14.2313C13.2562 13.0219 15 10.4719 15 7.5C15 3.35812 11.6438 0 7.5 0C3.35812 0 0 3.35812 0 7.5C0 10.5741 1.85344 13.2084 4.5 14.3672V33.6328C1.85344 34.7906 0 37.425 0 40.5C0 44.6438 3.35812 48 7.5 48C11.6438 48 15 44.6438 15 40.5C15 37.4259 13.1466 34.7916 10.5 33.6328V24.7219C13.3594 27.075 17.0156 28.5 21 28.5H27.6328C28.7906 31.1438 31.425 33 34.5 33C38.6419 33 42 29.6419 42 25.5C42 21.3581 38.6438 18 34.5 18ZM7.5 5.25C8.74031 5.25 9.75 6.25969 9.75 7.5C9.75 8.74031 8.74031 9.75 7.5 9.75C6.25969 9.75 5.25 8.74031 5.25 7.5C5.25 6.25969 6.25969 5.25 7.5 5.25ZM7.5 42.75C6.25969 42.75 5.25 41.7403 5.25 40.5C5.25 39.2597 6.25969 38.25 7.5 38.25C8.74031 38.25 9.75 39.2597 9.75 40.5C9.75 41.7403 8.74031 42.75 7.5 42.75ZM34.5 27.75C33.2597 27.75 32.25 26.7403 32.25 25.5C32.25 24.2597 33.2597 23.25 34.5 23.25C35.7403 23.25 36.75 24.2597 36.75 25.5C36.75 26.7403 35.7375 27.75 34.5 27.75Z" fill="#FFE13B"/>
</svg>
