<svg width="66" height="53" viewBox="0 0 66 53" fill="none" xmlns="http://www.w3.org/2000/svg">
<path d="M0.966797 24.1605C0.348047 24.7816 0 25.6201 0 26.5V39.75C0 40.6299 0.348047 41.4704 0.966797 42.0915C1.58555 42.7126 2.42344 43.0625 3.3 43.0625H6.6V23.1875H3.3C2.42344 23.1875 1.58606 23.5395 0.966797 24.1605ZM47.85 9.9375H36.3V3.3125C36.3 1.48855 34.8171 0 33 0C31.1829 0 29.7 1.48855 29.7 3.3125V9.9375H18.15C13.5919 9.9375 9.9 13.6434 9.9 18.2188V46.375C9.9 50.0374 12.8514 53 16.5 53H49.5C53.1486 53 56.1 50.0374 56.1 46.375V18.2188C56.1 13.6434 52.4184 9.9375 47.85 9.9375ZM26.4 43.0625H19.8V39.75H26.4V43.0625ZM23.1 30.6406C20.8209 30.6406 18.975 28.7877 18.975 26.5C18.975 24.2123 20.8209 22.3594 23.1 22.3594C25.3791 22.3594 27.225 24.2123 27.225 26.5C27.225 28.7877 25.3791 30.6406 23.1 30.6406ZM36.3 43.0625H29.7V39.75H36.3V43.0625ZM46.2 43.0625H39.6V39.75H46.2V43.0625ZM42.9 30.6406C40.6189 30.6406 38.775 28.7898 38.775 26.5C38.775 24.2102 40.6209 22.3594 42.9 22.3594C45.1791 22.3594 47.025 24.2123 47.025 26.5C47.025 28.7877 45.1791 30.6406 42.9 30.6406ZM65.0306 24.1605C64.4119 23.5395 63.5766 23.1875 62.7 23.1875H59.4V43.0625H62.7C63.5766 43.0625 64.4139 42.7131 65.0327 42.092C65.6514 41.4709 66 40.6299 66 39.75V26.5C66 25.6201 65.6494 24.7816 65.0306 24.1605Z" fill="#FFE13B"/>
</svg>
