<svg width="48" height="33" viewBox="0 0 48 33" fill="none" xmlns="http://www.w3.org/2000/svg">
<path d="M47.8771 2.78604C47.0773 1.40769 42.4584 2.43477 36.0187 5.13362C30.8609 -0.272543 22.4812 -1.67772 15.7068 2.21183C8.93379 6.1028 5.96707 14.0258 8.09426 21.1715C2.52526 25.37 -0.678295 28.8363 0.121532 30.2147C0.921358 31.593 5.54019 30.566 11.9799 27.8671C17.1377 33.2719 25.5174 34.6784 32.2918 30.7875C39.0648 26.8965 42.0316 18.9735 39.9044 11.8278C45.4734 7.6293 48.6783 4.16297 47.8785 2.78462L47.8771 2.78604ZM5.62386 27.0559C5.28776 26.4761 6.51588 25.0625 8.83311 23.1734C9.07135 23.7067 9.33795 24.2329 9.63718 24.7507C9.93782 25.267 10.2626 25.7608 10.6072 26.232C7.80496 27.2844 5.95995 27.6357 5.62386 27.0559ZM11.2794 23.8069C10.9305 23.2059 10.6327 22.5907 10.3789 21.9658C10.1122 21.3083 9.89668 20.641 9.73076 19.9667C9.13656 17.5514 9.18195 15.0599 9.8116 12.718C10.7859 9.10355 13.14 5.86439 16.6555 3.84554C20.1711 1.8267 24.1659 1.41897 27.8006 2.38536C30.1533 3.01316 32.3457 4.21942 34.151 5.93917C34.6545 6.41884 35.1281 6.93802 35.5663 7.49669C35.9832 8.02856 36.3704 8.59285 36.7192 9.19244C37.0681 9.79343 37.3645 10.4085 37.6198 11.0335C34.5679 13.3331 30.2852 16.1279 25.4096 18.9283C20.5341 21.7287 15.9592 24.0213 12.4323 25.5012C12.0154 24.9693 11.6282 24.405 11.2794 23.8054V23.8069ZM38.187 20.2827C37.2128 23.8971 34.8587 27.1363 31.3431 29.1552C27.8276 31.174 23.8313 31.5817 20.198 30.6153C17.8453 29.9875 15.6529 28.7813 13.8476 27.0616C17.634 25.3771 21.9324 23.1917 26.3938 20.6297C30.8567 18.0663 34.9069 15.4564 38.2664 13.0354C38.8606 15.4507 38.8152 17.9422 38.1856 20.2841L38.187 20.2827ZM39.1669 9.8287C38.9287 9.29542 38.6621 8.76921 38.3629 8.25286C38.0636 7.73651 37.7375 7.24273 37.3929 6.77153C40.1951 5.71908 42.0401 5.36778 42.3762 5.94761C42.7123 6.52604 41.4842 7.94106 39.1669 9.8287Z" fill="white"/>
</svg>
