<?xml version="1.0" standalone="no"?>
<!DOCTYPE svg PUBLIC "-//W3C//DTD SVG 20010904//EN"
 "http://www.w3.org/TR/2001/REC-SVG-20010904/DTD/svg10.dtd">
<svg version="1.0" xmlns="http://www.w3.org/2000/svg"
 width="400.000000pt" height="400.000000pt" viewBox="0 0 400.000000 400.000000"
 preserveAspectRatio="xMidYMid meet">
<metadata>
Created by potrace 1.14, written by Peter Selinger 2001-2017
</metadata>
<g transform="translate(0.000000,400.000000) scale(0.100000,-0.100000)"
fill="#000000" stroke="none">
<path d="M1249 3201 c-26 -27 -29 -36 -29 -95 l0 -66 -50 0 c-60 0 -114 -20
-129 -48 -15 -29 -15 -2015 0 -2044 15 -28 69 -48 129 -48 l50 0 0 -66 c0 -59
3 -68 29 -95 l29 -29 517 0 c433 0 521 2 544 15 34 17 40 32 48 111 l6 61 65
6 c91 7 113 30 120 126 l5 71 64 0 c58 0 68 3 94 29 26 27 29 36 29 94 l0 65
71 4 c63 3 74 7 95 31 l24 28 0 623 0 623 -25 23 c-21 20 -39 25 -95 28 l-70
4 0 65 c0 58 -3 67 -29 94 -26 26 -36 29 -94 29 l-64 0 -5 71 c-7 96 -29 119
-120 126 l-65 6 -6 63 c-7 70 -20 98 -54 113 -16 7 -194 11 -539 11 l-516 0
-29 -29z m941 -427 c0 -59 3 -68 29 -95 26 -26 36 -29 94 -29 l64 0 5 -68 c8
-107 36 -132 144 -132 l54 0 0 -479 0 -479 -70 -4 c-60 -3 -74 -8 -97 -31 -23
-23 -28 -37 -31 -97 l-4 -70 -67 0 c-96 -1 -121 -27 -121 -129 l0 -61 -390 0
-390 0 0 870 0 870 390 0 390 0 0 -66z"/>
</g>
</svg>
