<svg width="14" height="14" viewBox="0 0 14 14" fill="none" xmlns="http://www.w3.org/2000/svg">
<path d="M5.83333 12.0909H4.66667C4.58931 12.0909 4.51513 12.1244 4.46043 12.1841C4.40573 12.2437 4.375 12.3247 4.375 12.4091V13.3636C4.375 13.5324 4.43646 13.6942 4.54585 13.8136C4.65525 13.9329 4.80362 14 4.95833 14H5.83333C5.98804 14 6.13642 13.9329 6.24581 13.8136C6.35521 13.6942 6.41667 13.5324 6.41667 13.3636V12.7272C6.41667 12.5585 6.35521 12.3966 6.24581 12.2773C6.13642 12.1579 5.98804 12.0909 5.83333 12.0909Z" fill="#0A0A0A"/>
<path d="M9.33301 12.0909H8.16634C8.01163 12.0909 7.86326 12.1579 7.75386 12.2773C7.64447 12.3966 7.58301 12.5585 7.58301 12.7272V13.3636C7.58301 13.5324 7.64447 13.6942 7.75386 13.8136C7.86326 13.9329 8.01163 14 8.16634 14H9.04134C9.19605 14 9.34442 13.9329 9.45382 13.8136C9.56322 13.6942 9.62467 13.5324 9.62467 13.3636V12.4091C9.62467 12.3247 9.59395 12.2437 9.53925 12.1841C9.48455 12.1244 9.41036 12.0909 9.33301 12.0909Z" fill="#0A0A0A"/>
<path d="M2.33333 1.90909H3.20833C3.28569 1.90909 3.35987 1.87557 3.41457 1.8159C3.46927 1.75623 3.5 1.6753 3.5 1.59091V0.636364C3.5 0.46759 3.43854 0.305728 3.32915 0.186387C3.21975 0.0670453 3.07138 0 2.91667 0H2.33333C2.17862 0 2.03025 0.0670453 1.92085 0.186387C1.81146 0.305728 1.75 0.46759 1.75 0.636364V1.27273C1.75 1.4415 1.81146 1.60336 1.92085 1.72271C2.03025 1.84205 2.17862 1.90909 2.33333 1.90909Z" fill="#0A0A0A"/>
<path d="M10.7917 1.90909H11.6667C11.8214 1.90909 11.9697 1.84205 12.0791 1.72271C12.1885 1.60336 12.25 1.4415 12.25 1.27273V0.636364C12.25 0.46759 12.1885 0.305728 12.0791 0.186387C11.9697 0.0670453 11.8214 0 11.6667 0H11.0833C10.9286 0 10.7803 0.0670453 10.6709 0.186387C10.5615 0.305728 10.5 0.46759 10.5 0.636364V1.59091C10.5 1.6753 10.5307 1.75623 10.5854 1.8159C10.6401 1.87557 10.7143 1.90909 10.7917 1.90909Z" fill="#0A0A0A"/>
<path d="M14 6.36367C14 6.19489 13.9385 6.03303 13.8291 5.91369C13.7197 5.79435 13.5714 5.7273 13.4167 5.7273H12.5417C12.4643 5.7273 12.3901 5.69378 12.3354 5.63411C12.2807 5.57444 12.25 5.49351 12.25 5.40912V4.13639C12.25 3.96762 12.1885 3.80576 12.0791 3.68642C11.9697 3.56707 11.8214 3.50003 11.6667 3.50003H10.7917C10.7143 3.50003 10.6401 3.46651 10.5854 3.40683C10.5307 3.34716 10.5 3.26623 10.5 3.18185V2.54548C10.5 2.37671 10.4385 2.21485 10.3291 2.09551C10.2197 1.97616 10.0714 1.90912 9.91667 1.90912H9.04167C8.88696 1.90912 8.73858 1.97616 8.62919 2.09551C8.51979 2.21485 8.45833 2.37671 8.45833 2.54548V3.18185C8.45833 3.26623 8.4276 3.34716 8.37291 3.40683C8.31821 3.46651 8.24402 3.50003 8.16667 3.50003H5.83333C5.75598 3.50003 5.68179 3.46651 5.62709 3.40683C5.5724 3.34716 5.54167 3.26623 5.54167 3.18185V2.54548C5.54167 2.37671 5.48021 2.21485 5.37081 2.09551C5.26142 1.97616 5.11304 1.90912 4.95833 1.90912H4.08333C3.92862 1.90912 3.78025 1.97616 3.67085 2.09551C3.56146 2.21485 3.5 2.37671 3.5 2.54548V3.18185C3.5 3.26623 3.46927 3.34716 3.41457 3.40683C3.35987 3.46651 3.28569 3.50003 3.20833 3.50003H2.33333C2.17862 3.50003 2.03025 3.56707 1.92085 3.68642C1.81146 3.80576 1.75 3.96762 1.75 4.13639V5.40912C1.75 5.49351 1.71927 5.57444 1.66457 5.63411C1.60987 5.69378 1.53569 5.7273 1.45833 5.7273H0.583333C0.428624 5.7273 0.280251 5.79435 0.170854 5.91369C0.0614582 6.03303 0 6.19489 0 6.36367L0 11.1364C0 11.3896 0.0921872 11.6323 0.256282 11.8114C0.420376 11.9904 0.642936 12.0909 0.875 12.0909C1.10706 12.0909 1.32962 11.9904 1.49372 11.8114C1.65781 11.6323 1.75 11.3896 1.75 11.1364V9.2273C1.75 9.14292 1.78073 9.06198 1.83543 9.00231C1.89013 8.94264 1.96431 8.90912 2.04167 8.90912H2.625C2.70235 8.90912 2.77654 8.94264 2.83124 9.00231C2.88594 9.06198 2.91667 9.14292 2.91667 9.2273V11.1364C2.91667 11.3896 3.00885 11.6323 3.17295 11.8114C3.33704 11.9904 3.5596 12.0909 3.79167 12.0909C4.02373 12.0909 4.24629 11.9904 4.41039 11.8114C4.57448 11.6323 4.66667 11.3896 4.66667 11.1364V9.86367C4.66667 9.77928 4.6974 9.69835 4.75209 9.63868C4.80679 9.57901 4.88098 9.54549 4.95833 9.54549H9.04167C9.11902 9.54549 9.19321 9.57901 9.24791 9.63868C9.3026 9.69835 9.33333 9.77928 9.33333 9.86367V11.1364C9.33333 11.3896 9.42552 11.6323 9.58962 11.8114C9.75371 11.9904 9.97627 12.0909 10.2083 12.0909C10.4404 12.0909 10.663 11.9904 10.8271 11.8114C10.9911 11.6323 11.0833 11.3896 11.0833 11.1364V9.2273C11.0833 9.14292 11.1141 9.06198 11.1688 9.00231C11.2235 8.94264 11.2976 8.90912 11.375 8.90912H11.9583C12.0357 8.90912 12.1099 8.94264 12.1646 9.00231C12.2193 9.06198 12.25 9.14292 12.25 9.2273V11.1364C12.25 11.3896 12.3422 11.6323 12.5063 11.8114C12.6704 11.9904 12.8929 12.0909 13.125 12.0909C13.3571 12.0909 13.5796 11.9904 13.7437 11.8114C13.9078 11.6323 14 11.3896 14 11.1364V6.36367ZM4.95833 6.36367C4.95833 6.44805 4.9276 6.52898 4.87291 6.58865C4.81821 6.64833 4.74402 6.68185 4.66667 6.68185H4.08333C4.00598 6.68185 3.93179 6.64833 3.87709 6.58865C3.8224 6.52898 3.79167 6.44805 3.79167 6.36367V5.7273C3.79167 5.64291 3.8224 5.56198 3.87709 5.50231C3.93179 5.44264 4.00598 5.40912 4.08333 5.40912H4.66667C4.74402 5.40912 4.81821 5.44264 4.87291 5.50231C4.9276 5.56198 4.95833 5.64291 4.95833 5.7273V6.36367ZM10.2083 6.36367C10.2083 6.44805 10.1776 6.52898 10.1229 6.58865C10.0682 6.64833 9.99402 6.68185 9.91667 6.68185H9.33333C9.25598 6.68185 9.18179 6.64833 9.12709 6.58865C9.0724 6.52898 9.04167 6.44805 9.04167 6.36367V5.7273C9.04167 5.64291 9.0724 5.56198 9.12709 5.50231C9.18179 5.44264 9.25598 5.40912 9.33333 5.40912H9.91667C9.99402 5.40912 10.0682 5.44264 10.1229 5.50231C10.1776 5.56198 10.2083 5.64291 10.2083 5.7273V6.36367Z" fill="#0A0A0A"/>
</svg>
