<?xml version="1.0" standalone="no"?>
<!DOCTYPE svg PUBLIC "-//W3C//DTD SVG 20010904//EN"
 "http://www.w3.org/TR/2001/REC-SVG-20010904/DTD/svg10.dtd">
<svg version="1.0" xmlns="http://www.w3.org/2000/svg"
 width="1096.000000pt" height="1096.000000pt" viewBox="0 0 1096.000000 1096.000000"
 preserveAspectRatio="xMidYMid meet">
<metadata>
Created by potrace 1.14, written by Peter Selinger 2001-2017
</metadata>
<g transform="translate(0.000000,1096.000000) scale(0.100000,-0.100000)"
fill="#000000" stroke="none">
<path d="M3886 9100 c-20 -22 -36 -38 -36 -36 0 3 -19 -14 -43 -37 -24 -23
-94 -89 -157 -147 -63 -58 -130 -121 -150 -140 -20 -19 -86 -80 -145 -135 -59
-55 -125 -116 -145 -135 -32 -30 -158 -147 -274 -255 -158 -146 -244 -227
-285 -265 -42 -40 -209 -196 -295 -275 -18 -16 -86 -80 -152 -141 -65 -62
-135 -126 -154 -144 -139 -128 -369 -342 -419 -390 -26 -25 -94 -88 -151 -140
-57 -52 -128 -119 -157 -147 -30 -29 -56 -53 -58 -53 -1 0 -23 -19 -47 -42
-24 -24 -97 -92 -162 -153 -66 -60 -136 -126 -156 -145 -39 -37 -215 -201
-314 -291 -32 -30 -79 -74 -105 -99 -26 -25 -98 -92 -161 -150 -62 -58 -132
-123 -156 -145 -23 -22 -69 -65 -103 -96 l-60 -57 112 -105 c62 -57 126 -118
143 -133 106 -98 254 -236 298 -277 28 -27 96 -90 150 -140 55 -51 136 -126
180 -168 45 -42 95 -89 111 -104 28 -24 186 -172 275 -255 33 -31 202 -188
301 -280 20 -19 86 -81 146 -136 59 -56 124 -116 143 -134 19 -18 85 -78 145
-135 61 -56 122 -113 136 -126 32 -29 237 -220 289 -269 20 -19 83 -78 140
-130 56 -52 124 -115 150 -140 26 -25 94 -88 150 -140 56 -52 119 -111 140
-130 60 -56 260 -242 299 -278 20 -19 64 -60 98 -93 l63 -60 47 43 c26 24 77
70 113 104 153 143 219 204 279 260 35 32 78 73 96 89 17 17 81 76 141 132 60
55 138 129 174 162 l65 61 -70 66 c-38 36 -117 109 -174 162 -57 54 -121 113
-141 132 -20 19 -85 80 -145 135 -59 55 -122 114 -140 130 -81 76 -269 251
-293 273 -53 49 -235 218 -282 262 -27 25 -101 95 -166 155 -65 61 -132 124
-149 140 -18 17 -76 71 -130 120 -54 50 -119 110 -145 135 -26 25 -94 88 -150
140 -57 52 -125 115 -151 140 -26 25 -94 88 -150 140 -57 52 -123 114 -148
138 -26 24 -63 59 -84 79 l-38 35 54 52 c30 28 103 96 163 151 59 55 126 118
150 140 23 22 83 78 134 124 50 47 111 103 134 125 23 23 86 82 140 131 54 50
117 108 141 130 70 66 386 361 455 425 60 55 252 233 294 273 23 21 88 82 145
135 138 128 148 137 219 205 34 31 66 57 73 57 6 0 26 -15 44 -32 18 -18 79
-76 135 -128 57 -52 120 -111 140 -130 73 -68 255 -239 285 -266 17 -15 86
-79 154 -143 69 -64 137 -127 152 -141 109 -100 262 -244 307 -287 30 -29 56
-53 58 -53 1 0 22 -19 47 -42 24 -24 73 -70 109 -103 62 -57 251 -234 343
-320 23 -22 89 -83 145 -135 195 -182 181 -165 161 -186 -10 -11 -64 -62 -121
-114 -57 -52 -124 -114 -149 -138 -64 -59 -137 -128 -204 -190 l-57 -53 -52
48 c-28 26 -70 66 -93 88 -23 22 -88 83 -145 135 -57 52 -122 113 -146 135
-23 22 -86 81 -140 130 -53 50 -114 106 -134 125 -20 19 -86 80 -145 135 -59
55 -117 109 -129 121 l-22 21 -50 -45 c-41 -38 -109 -100 -314 -292 -14 -14
-75 -70 -134 -125 -115 -106 -132 -122 -305 -285 l-112 -105 48 -44 c100 -92
267 -248 313 -291 26 -25 92 -85 145 -135 54 -49 115 -106 135 -125 20 -19 82
-78 139 -130 57 -52 122 -113 145 -135 24 -22 94 -87 156 -145 62 -58 132
-123 156 -145 23 -22 84 -79 136 -126 51 -48 112 -104 134 -125 23 -22 88 -82
144 -134 56 -52 132 -123 168 -158 37 -35 101 -94 142 -131 41 -38 103 -95
136 -127 34 -33 99 -93 144 -134 45 -41 103 -95 129 -120 26 -25 96 -90 155
-145 133 -123 153 -141 307 -285 68 -63 150 -140 183 -170 32 -30 81 -75 107
-100 53 -50 218 -204 294 -274 28 -25 53 -46 56 -46 3 0 29 21 57 48 28 26 92
85 143 132 50 47 118 110 150 140 31 30 93 87 136 127 43 39 101 93 129 120
28 26 97 91 154 143 56 52 121 112 144 134 64 60 258 241 292 272 17 16 70 65
118 109 48 44 111 103 140 130 28 28 106 100 171 160 65 61 135 126 156 145
20 19 80 76 134 125 53 50 116 108 139 130 24 22 94 87 156 145 62 58 129 121
150 140 20 19 86 80 146 135 59 55 135 126 168 158 32 31 61 57 63 57 1 0 22
19 46 43 24 23 95 89 157 147 63 58 145 135 184 171 39 37 87 81 106 99 19 18
86 80 149 139 171 159 171 159 276 256 54 50 131 122 171 160 41 39 74 68 74
65 0 -3 4 1 9 9 10 15 1 24 -174 186 -53 50 -112 104 -129 120 -195 180 -267
248 -311 290 -29 28 -88 82 -131 122 -44 39 -100 91 -125 115 -25 23 -90 84
-143 133 -54 50 -132 122 -173 162 -41 39 -94 88 -117 109 -22 20 -98 90 -168
156 -69 65 -136 128 -149 139 -13 11 -75 69 -139 128 -63 60 -131 123 -150
141 -19 18 -62 58 -96 89 -33 31 -111 103 -174 161 -62 58 -135 125 -161 150
-26 25 -89 84 -140 132 -52 47 -115 106 -140 130 -45 42 -230 214 -299 278
-19 18 -84 78 -145 135 -120 112 -125 117 -275 255 -56 52 -131 122 -165 155
-35 33 -87 82 -117 109 -29 27 -98 91 -153 142 -55 51 -111 102 -124 113 l-24
21 -56 -55 c-31 -29 -72 -68 -91 -86 -19 -17 -87 -80 -150 -139 -63 -60 -128
-121 -145 -136 -36 -33 -243 -225 -295 -274 -21 -19 -86 -80 -145 -135 -128
-119 -160 -149 -240 -223 -34 -32 -112 -104 -174 -162 -62 -58 -143 -133 -179
-167 -37 -35 -69 -63 -72 -63 -3 0 -32 26 -66 58 -34 31 -102 95 -153 142 -51
47 -111 103 -135 125 -23 22 -95 90 -161 150 -65 61 -134 126 -155 145 -31 30
-137 128 -290 270 -57 53 -250 232 -290 270 -20 19 -79 73 -129 120 -51 47
-110 102 -131 123 -22 20 -41 37 -43 37 -3 0 -21 -18 -41 -40z m3197 -1710
c16 -14 50 -45 76 -70 26 -25 101 -94 166 -155 66 -60 140 -130 165 -154 25
-24 83 -78 129 -120 46 -42 109 -101 141 -131 32 -30 104 -98 161 -150 56 -52
117 -108 134 -125 62 -58 173 -161 285 -265 62 -58 135 -125 161 -150 72 -69
248 -232 272 -253 12 -10 78 -72 147 -137 69 -65 145 -135 169 -157 l43 -39
-68 -66 c-38 -36 -93 -87 -123 -114 -29 -27 -70 -65 -90 -84 -20 -19 -86 -81
-146 -136 -61 -56 -124 -115 -140 -130 -17 -16 -84 -78 -150 -139 -65 -60
-140 -130 -166 -155 -26 -25 -96 -90 -155 -145 -59 -55 -122 -113 -140 -130
-17 -16 -71 -66 -118 -110 -48 -44 -111 -102 -140 -130 -29 -27 -102 -95 -161
-150 -59 -55 -133 -124 -164 -153 -31 -30 -90 -84 -131 -122 -41 -38 -104 -96
-140 -130 -36 -33 -68 -59 -71 -58 -7 3 -163 145 -234 213 -23 22 -88 83 -145
135 -57 52 -137 127 -179 167 l-76 71 51 49 c28 26 99 93 158 148 60 55 125
116 145 135 34 32 193 179 275 255 37 34 265 247 306 285 14 14 77 72 140 130
62 58 130 121 150 140 20 19 80 75 133 125 91 84 110 109 88 117 -7 3 -110 97
-281 258 -43 40 -176 164 -279 260 -118 109 -281 261 -322 300 -25 25 -69 66
-97 91 -74 66 -267 246 -329 306 -29 28 -53 50 -53 48 0 -2 -18 15 -40 37 -22
23 -40 43 -40 45 0 3 52 53 157 150 79 74 258 241 336 313 38 36 84 79 101 96
33 33 34 33 89 -16z"/>
</g>
</svg>
