<?xml version="1.0" standalone="no"?>
<!DOCTYPE svg PUBLIC "-//W3C//DTD SVG 20010904//EN"
 "http://www.w3.org/TR/2001/REC-SVG-20010904/DTD/svg10.dtd">
<svg version="1.0" xmlns="http://www.w3.org/2000/svg"
 width="176.000000pt" height="176.000000pt" viewBox="0 0 176.000000 176.000000"
 preserveAspectRatio="xMidYMid meet">
<metadata>
Created by potrace 1.14, written by Peter Selinger 2001-2017
</metadata>
<g transform="translate(0.000000,176.000000) scale(0.100000,-0.100000)"
fill="#000000" stroke="none">
<path d="M708 1463 c-165 -51 -292 -157 -367 -305 -64 -128 -81 -252 -56 -408
l7 -45 -58 -47 c-137 -109 -234 -219 -234 -263 0 -69 151 -52 387 43 l53 22
42 -40 c96 -89 265 -152 403 -149 284 6 525 200 588 475 15 62 16 196 2 270
l-7 40 69 56 c92 75 143 124 186 181 64 84 42 124 -62 114 -74 -8 -218 -52
-317 -99 -18 -8 -27 -4 -54 22 -49 48 -126 94 -210 125 -107 40 -261 43 -372
8z m353 -76 c125 -45 250 -157 301 -269 l18 -38 -78 -54 c-90 -64 -321 -209
-407 -256 -33 -18 -64 -36 -70 -40 -26 -20 -336 -170 -355 -172 -18 -2 -29 9
-56 57 -46 81 -66 154 -69 249 -9 264 169 490 430 546 70 16 213 4 286 -23z
m492 -113 c11 -11 -20 -59 -68 -103 l-47 -43 -25 43 c-13 24 -29 49 -35 56
-17 21 155 67 175 47z m-139 -336 c14 -137 -17 -256 -100 -374 -63 -89 -139
-147 -252 -192 -59 -22 -82 -26 -182 -26 -96 0 -125 4 -175 23 -109 42 -210
118 -174 130 18 6 308 154 364 186 114 64 326 196 410 253 49 34 92 62 96 62
4 0 10 -28 13 -62z m-1062 -360 c15 -28 25 -54 23 -59 -7 -11 -107 -39 -139
-39 -42 0 -32 34 25 96 29 30 55 54 58 54 3 0 18 -23 33 -52z"/>
</g>
</svg>
