<svg width="47" height="71" viewBox="0 0 47 71" fill="none" xmlns="http://www.w3.org/2000/svg">
<path d="M23.5 35.5C23.5 32.3616 24.7379 29.3517 26.9415 27.1326C29.145 24.9134 32.1337 23.6667 35.25 23.6667C38.3663 23.6667 41.355 24.9134 43.5585 27.1326C45.7621 29.3517 47 32.3616 47 35.5C47 38.6384 45.7621 41.6482 43.5585 43.8674C41.355 46.0866 38.3663 47.3333 35.25 47.3333C32.1337 47.3333 29.145 46.0866 26.9415 43.8674C24.7379 41.6482 23.5 38.6384 23.5 35.5ZM0 59.1667C0 56.0283 1.23794 53.0184 3.44149 50.7992C5.64505 48.5801 8.63371 47.3333 11.75 47.3333H23.5V59.1667C23.5 62.3051 22.2621 65.3149 20.0585 67.5341C17.855 69.7533 14.8663 71 11.75 71C8.63371 71 5.64505 69.7533 3.44149 67.5341C1.23794 65.3149 0 62.3051 0 59.1667ZM23.5 0V23.6667H35.25C38.3663 23.6667 41.355 22.4199 43.5585 20.2008C45.7621 17.9816 47 14.9717 47 11.8333C47 8.69494 45.7621 5.68508 43.5585 3.4659C41.355 1.24672 38.3663 0 35.25 0L23.5 0ZM0 11.8333C0 14.9717 1.23794 17.9816 3.44149 20.2008C5.64505 22.4199 8.63371 23.6667 11.75 23.6667H23.5V0H11.75C8.63371 0 5.64505 1.24672 3.44149 3.4659C1.23794 5.68508 0 8.69494 0 11.8333ZM0 35.5C0 38.6384 1.23794 41.6482 3.44149 43.8674C5.64505 46.0866 8.63371 47.3333 11.75 47.3333H23.5V23.6667H11.75C8.63371 23.6667 5.64505 24.9134 3.44149 27.1326C1.23794 29.3517 0 32.3616 0 35.5Z" fill="#FFE13B"/>
</svg>
