<svg width="67" height="67" viewBox="0 0 67 67" fill="none" xmlns="http://www.w3.org/2000/svg">
<path d="M0 0V67H67V0H0ZM36.4612 52.254C36.4612 58.7746 32.6326 61.7507 27.0542 61.7507C22.0143 61.7507 19.098 59.1484 17.6025 55.9929L22.7321 52.8971C23.7192 54.6469 24.6165 56.1275 26.785 56.1275C28.8489 56.1275 30.165 55.3199 30.165 52.1643V30.7632H36.4612V52.254ZM51.3567 61.7507C45.5091 61.7507 41.7254 58.969 39.8859 55.3199L45.0156 52.3587C46.3616 54.5571 48.1263 56.1873 51.2221 56.1873C53.8243 56.1873 55.4993 54.8862 55.4993 53.0766C55.4993 50.923 53.7944 50.1603 50.908 48.8891L49.3377 48.2161C44.7913 46.2868 41.7853 43.8491 41.7853 38.7194C41.7853 33.9935 45.3895 30.4042 50.9978 30.4042C55.0058 30.4042 57.8772 31.7951 59.9411 35.4442L55.0357 38.5848C53.9589 36.6556 52.7924 35.8929 50.9828 35.8929C49.1433 35.8929 47.9768 37.0594 47.9768 38.5848C47.9768 40.4692 49.1433 41.2319 51.8502 42.4134L53.4205 43.0864C58.7746 45.3746 61.7806 47.7225 61.7806 52.9868C61.7806 58.64 57.3239 61.7507 51.3567 61.7507Z" fill="#FFE13B"/>
</svg>
