<svg width="67" height="77" viewBox="0 0 67 77" fill="none" xmlns="http://www.w3.org/2000/svg">
<path d="M33.485 77C32.4803 77 31.4606 76.725 30.5759 76.2055L21.3236 70.6285C19.944 69.834 20.6188 69.559 21.0687 69.4062C22.9132 68.7492 23.288 68.6117 25.2525 67.4657C25.4624 67.3435 25.7323 67.3893 25.9423 67.5268L33.0501 71.8203C33.3051 71.9731 33.665 71.9731 33.9049 71.8203L61.6016 55.5326C61.8565 55.3798 62.0215 55.0742 62.0215 54.7686V22.1932C62.0215 21.8723 61.8565 21.582 61.5866 21.4139L33.9049 5.14148C33.65 4.98869 33.3051 4.98869 33.0501 5.14148L5.38339 21.4292C5.11347 21.582 4.94852 21.8876 4.94852 22.2085V54.7686C4.94852 55.0742 5.11347 55.3798 5.38339 55.5173L12.9711 59.9789C17.0949 62.0721 19.6141 59.6122 19.6141 57.1216V24.974C19.6141 24.5156 19.974 24.1642 20.4239 24.1642H23.9329C24.3677 24.1642 24.7426 24.5156 24.7426 24.974V57.1369C24.7426 62.7291 21.7435 65.9378 16.5401 65.9378C14.9355 65.9378 13.6759 65.9378 10.167 64.1654L2.90913 59.9025C1.10967 58.8482 0 56.8772 0 54.7533V22.1932C0 20.0846 1.10967 18.0983 2.90913 17.0441L30.5759 0.756325C32.3304 -0.252108 34.6547 -0.252108 36.3941 0.756325L64.0909 17.0593C65.8903 18.1136 67 20.0846 67 22.2085V54.7686C67 56.8772 65.8903 58.8482 64.0909 59.9178L36.3941 76.2055C35.5094 76.725 34.5047 77 33.485 77ZM55.8433 44.8982C55.8433 38.8018 51.7945 37.1822 43.2921 36.0362C34.6846 34.875 33.8149 34.2791 33.8149 32.2317C33.8149 30.5357 34.5497 28.2743 40.9228 28.2743C46.6061 28.2743 48.7055 29.5272 49.5752 33.4387C49.6502 33.8054 49.9801 34.0805 50.355 34.0805H53.9539C54.1788 34.0805 54.3888 33.9888 54.5387 33.8207C54.6887 33.6526 54.7637 33.4235 54.7487 33.1943C54.1938 26.4561 49.8001 23.3238 40.9228 23.3238C33.0201 23.3238 28.3116 26.7158 28.3116 32.415C28.3116 38.5879 33.0051 40.2991 40.5779 41.0631C49.6502 41.9646 50.355 43.3244 50.355 45.1427C50.355 48.2902 47.8657 49.6348 42.0325 49.6348C34.6996 49.6348 33.0951 47.7554 32.5553 44.0426C32.4953 43.6453 32.1654 43.355 31.7605 43.355H28.1766C27.7267 43.355 27.3818 43.7217 27.3818 44.1648C27.3818 48.9167 29.9161 54.5853 42.0475 54.5853C50.8048 54.57 55.8433 51.0405 55.8433 44.8982Z" fill="#202020"/>
</svg>
