<svg width="89" height="47" viewBox="0 0 89 47" fill="none" xmlns="http://www.w3.org/2000/svg">
<path d="M25.9954 16.8232H22.4947L20.585 26.6811H23.6925C25.7544 26.6811 27.2896 26.2902 28.2983 25.5122C29.307 24.7304 29.9856 23.4311 30.3379 21.607C30.679 19.8573 30.5233 18.6213 29.878 17.9028C29.2291 17.1843 27.9386 16.8232 25.9954 16.8232ZM44.5 0C19.9249 0 0 10.5206 0 23.4981C0 36.4757 19.9249 47 44.5 47C69.0751 47 89 36.4757 89 23.4981C89 10.5206 69.0751 0 44.5 0ZM32.4108 27.7384C31.443 28.6691 30.2785 29.3689 29.0103 29.7896C27.7643 30.1917 26.1734 30.4002 24.2451 30.4002H19.8655L18.6529 36.6581H13.5428L18.1041 13.1079H27.9312C30.8867 13.1079 33.0412 13.8859 34.3985 15.4458C35.7557 17.0019 36.1637 19.176 35.6222 21.9681C35.4149 23.0729 35.0331 24.1374 34.4912 25.1213C33.9609 26.0706 33.2675 26.9454 32.4108 27.7384ZM47.3332 30.4002L49.3468 19.9801C49.5804 18.7963 49.4914 17.9847 49.0946 17.5566C48.6978 17.1248 47.8486 16.9088 46.547 16.9088H42.4975L39.8868 30.4039H34.8138L39.3751 6.8499H44.4444L43.2318 13.1116H47.7485C50.5928 13.1116 52.5508 13.6105 53.6299 14.6044C54.709 15.5984 55.0317 17.2104 54.6052 19.4403L52.484 30.4002H47.3332ZM75.5054 21.9681C75.3014 23.0738 74.9194 24.1388 74.3743 25.1213C73.844 26.0706 73.1506 26.9454 72.294 27.7384C71.3256 28.6662 70.1641 29.3668 68.8934 29.7896C67.6474 30.1917 66.0565 30.4002 64.1245 30.4002H59.7487L58.536 36.6619H53.426L57.9872 13.1116H67.8106C70.7661 13.1116 72.9207 13.8897 74.2779 15.4495C75.6352 17.0019 76.0468 19.176 75.5054 21.9681ZM65.8822 16.8232H62.3853L60.4718 26.6811H63.5794C65.6449 26.6811 67.1802 26.2902 68.1851 25.5122C69.1938 24.7304 69.8724 23.4311 70.2284 21.607C70.5696 19.8573 70.4101 18.6213 69.7649 17.9028C69.1196 17.1843 67.8217 16.8232 65.8822 16.8232Z" fill="#202020"/>
</svg>
