<svg width="91" height="68" viewBox="0 0 91 68" fill="none" xmlns="http://www.w3.org/2000/svg">
<path d="M42.9179 51.4089C42.8752 51.4939 42.8326 51.5619 42.9179 51.4089ZM78.3415 39.0849C75.4816 39.084 72.6599 39.7383 70.0945 40.9972C69.2556 39.3115 68.3882 37.8383 68.246 36.7334C68.0754 35.4443 67.8905 34.6794 68.0896 33.1495C68.2887 31.6197 69.1845 29.4523 69.1703 29.2965C69.156 29.1407 68.9712 28.3616 67.1369 28.3474C65.3027 28.3333 63.7244 28.7016 63.541 29.1832C63.217 30.0634 62.965 30.9682 62.7874 31.8888C62.4603 33.5462 59.1203 39.4673 57.2292 42.5554C56.6036 41.3514 56.0775 40.2889 55.9637 39.439C55.7931 38.15 55.6082 37.385 55.8073 35.8551C56.0064 34.3253 56.9022 32.1579 56.888 32.0021C56.8737 31.8463 56.6889 31.0672 54.8561 31.053C53.0233 31.0389 51.4435 31.4072 51.2587 31.8888C51.0738 32.3704 50.8748 33.5037 50.5051 34.5944C50.1354 35.6852 45.6863 45.5444 44.5218 48.1083C43.9246 49.4115 43.4127 50.4598 43.043 51.1681C42.9861 51.2814 42.9435 51.3522 42.915 51.4089C42.9577 51.338 42.9861 51.2672 42.9861 51.2955C42.6733 51.9047 42.4885 52.2446 42.4885 52.2446V52.2588C42.2467 52.7121 41.9766 53.1229 41.8486 53.1229C41.7633 53.1229 41.5784 51.933 41.8913 50.304C42.5596 46.8759 44.1379 41.5497 44.1236 41.3655C44.1094 41.2664 44.4222 40.3456 43.0857 39.8498C41.7917 39.3824 41.3225 40.1615 41.2088 40.1615C41.095 40.1615 41.0097 40.4448 41.0097 40.4448C41.0097 40.4448 42.4458 34.4386 38.2526 34.4386C35.6364 34.4386 31.9963 37.3 30.2076 39.8923C29.0843 40.5014 26.6528 41.8188 24.0934 43.2212C23.1123 43.7595 22.1028 44.312 21.1501 44.8361C21.079 44.7652 21.0222 44.6944 20.9511 44.6236C15.8621 39.2124 6.46626 35.3877 6.86439 28.1208C7.00658 25.4718 7.9308 18.5166 24.9324 10.0739C38.8669 3.16114 50.0074 5.05932 51.9256 9.28064C54.684 15.301 45.9692 26.5059 31.4987 28.1208C25.9831 28.7299 23.0839 26.6051 22.3587 25.8118C21.6051 24.976 21.4914 24.9335 21.207 25.0894C20.7378 25.3443 21.0364 26.0809 21.207 26.5201C21.6336 27.6391 23.4109 29.6223 26.4381 30.6139C29.0971 31.478 35.5638 31.9596 43.3828 28.9424C52.1673 25.571 59.0052 16.1792 57.0003 8.31739C54.9584 0.328039 41.6609 -2.29258 29.0871 2.15539C21.5952 4.80434 13.4932 8.969 7.66491 14.3944C0.741721 20.8539 -0.365933 26.4776 0.0890725 28.829C1.70861 37.1725 13.2515 42.6121 17.8712 46.6351C17.6437 46.7626 17.4305 46.8759 17.2314 46.9892C14.9151 48.1366 6.11505 52.7263 3.91254 57.5709C1.42423 63.0671 4.32489 67.0051 6.2288 67.5434C12.1709 69.1866 18.2552 66.226 21.5241 61.3672C24.793 56.5085 24.3963 50.1623 22.8891 47.2725C22.8749 47.23 22.8464 47.2017 22.8322 47.1592C23.4294 46.8051 24.0408 46.4509 24.6522 46.0968C25.831 45.4027 26.9827 44.7652 27.9923 44.2128C27.4235 45.7427 27.0112 47.5842 26.7979 50.2473C26.5419 53.3637 27.8359 57.4009 29.5137 58.9874C30.2531 59.6815 31.1475 59.6957 31.702 59.6957C33.6642 59.6957 34.5458 58.0808 35.5255 56.1543C36.7341 53.8028 37.8005 51.0689 37.8005 51.0689C37.8005 51.0689 36.4639 58.4633 40.1182 58.4633C41.4533 58.4633 42.7899 56.7493 43.3885 55.871V55.8852C43.3885 55.8852 43.417 55.8285 43.488 55.7152C43.6302 55.5027 43.7013 55.3752 43.7013 55.3752V55.3327C44.2417 54.412 45.4218 52.3013 47.1978 48.8166C49.5012 44.312 51.7037 38.6882 51.7037 38.6882C51.9166 39.9245 52.2111 41.1454 52.5853 42.3429C52.9834 43.6887 53.8224 45.1619 54.4906 46.5926C53.9503 47.3292 53.6233 47.7542 53.6233 47.7542C53.6243 47.765 53.6294 47.7752 53.6375 47.7825C53.2109 48.3491 52.7275 48.9582 52.2298 49.5532C50.4112 51.7064 48.2485 54.1712 47.9642 54.8794C47.6229 55.7152 47.7082 56.3385 48.3623 56.8201C48.8457 57.1884 49.6989 57.2451 50.5932 57.1742C52.2284 57.0609 53.3801 56.6643 53.9347 56.4093C54.957 56.0441 55.9232 55.5387 56.8055 54.9078C58.5828 53.6045 59.6635 51.7347 59.564 49.2699C59.5071 47.91 59.0663 46.5501 58.526 45.2752C58.6824 45.0486 58.853 44.8077 59.0094 44.5669C61.8233 40.4731 63.9988 35.9798 63.9988 35.9798C64.2117 37.216 64.5062 38.4369 64.8804 39.6345C65.2217 40.7819 65.8885 42.0426 66.4999 43.275C63.8566 45.414 62.2215 47.893 61.6527 49.522C60.6005 52.5393 61.4252 53.8992 62.9751 54.2108C63.6718 54.3525 64.6671 54.0267 65.4065 53.715C66.5046 53.3506 67.54 52.8203 68.4764 52.1426C70.2537 50.8394 71.9728 49.0121 71.8591 46.5331C71.8164 45.414 71.5036 44.295 71.0912 43.2184C73.3236 42.2835 76.2228 41.7735 79.9198 42.1985C87.8369 43.1192 89.3867 48.0488 89.0881 50.1028C88.7895 52.1568 87.1259 53.3042 86.5714 53.6442C86.0168 53.9842 85.8462 54.1117 85.8889 54.3666C85.96 54.7349 86.2159 54.7208 86.6851 54.6358C87.3392 54.5225 90.8356 52.9642 90.992 49.1537C91.2195 44.3375 86.5714 39.0395 78.3372 39.082L78.3415 39.0849ZM17.3167 59.5824C14.7019 62.4296 11.0334 63.5062 9.45649 62.5996C7.76444 61.6194 8.43273 57.4292 11.659 54.395C13.6212 52.5534 16.1508 50.8536 17.8286 49.8053C18.2125 49.5787 18.767 49.2387 19.4495 48.8279C19.5633 48.7571 19.6202 48.7288 19.6202 48.7288C19.7481 48.6438 19.8903 48.5729 20.0325 48.4879C21.2113 52.7943 20.0752 56.5906 17.3167 59.5795V59.5824ZM36.4212 46.6351C35.5112 48.8591 33.5931 54.5253 32.4272 54.2278C31.4318 53.9728 30.8204 49.6523 32.2281 45.4027C32.939 43.2637 34.4462 40.7139 35.342 39.7223C36.7767 38.1216 38.355 37.6117 38.7247 38.2491C39.2224 39.0849 36.99 45.2469 36.4212 46.6351ZM52.2042 54.1428C51.8203 54.3411 51.4649 54.4686 51.2942 54.3695C51.1663 54.2986 51.4506 54.0295 51.4506 54.0295C51.4506 54.0295 53.4271 51.9188 54.2091 50.9556C54.6641 50.389 55.1902 49.7232 55.7576 48.9866C55.7576 49.0574 55.7718 49.1282 55.7718 49.2132C55.7533 51.7488 53.3091 53.4629 52.2 54.1428H52.2042ZM64.3728 51.3805C64.0884 51.1822 64.1311 50.5164 65.0837 48.4483C65.4534 47.6408 66.3051 46.281 67.7853 44.9777C67.9529 45.4711 68.044 45.9869 68.0555 46.5076C68.0413 49.6948 65.752 50.8848 64.3742 51.3805H64.3728Z" fill="#FFE13B"/>
</svg>
